<svg height="500" viewBox="0 0 500 500" width="500" xmlns="http://www.w3.org/2000/svg" xmlns:xlink="http://www.w3.org/1999/xlink"><linearGradient id="a" x1="62.363901%" x2="39.131087%" y1="63.610886%" y2="35.223852%"><stop offset="0" stop-color="#f2f2f2"/><stop offset="1" stop-color="#fff"/></linearGradient><mask id="b" fill="#fff"><path d="m266.163885 61.5023006h36.913985c-4.034148-18.7444325-18.326266-33.4866258-36.913985-38.1110276zm-21.76193 61.4615034v-39.7306905h-.061278v-60.5843558c-9.342883 1.7379754-17.995364 6.1889877-24.97495 12.9532208-9.334712 9.1325307-14.686341 21.8042485-14.686341 34.7737884v52.5880371zm-39.722569 58.656671c18.789937-4.032837 33.560025-18.334417 38.174273-36.925858h-38.174273zm-21.790526 12.010798v-48.936656h-39.722569v98.295567c22.691316-4.98546 39.722569-25.223083 39.722569-49.358911zm-98.4883587-110.3369632c4.5611403 21.2126842 22.2521557 37.2950772 44.4450747 39.4165492 1.666767.097914 3.339662.252945 5.010514.252945h49.03277v-39.6694942zm-61.4518171-61.4309049c4.9921303 22.6589571 25.2568296 39.667454 49.4249499 39.667454h109.7390349c-1.728045-9.3671166-6.193183-18.0345552-12.99302-25.0129755-9.116153-9.3161196-21.804824-14.6565184-34.818271-14.6565184-.120513 0-.24307 0-.363584 0l-.081704.0020399zm303.0370178 50.5032822v10.8664264h-59.821817v39.7306905c0 7.276242.14094 14.530046-1.100965 21.730813-2.567557 14.870705-9.730978 28.537883-20.732456 39.263558-11.142419 10.860307-25.211893 17.718374-40.388459 19.835767-.868108 6.176748-2.534875 12.192346-4.986002 17.977438-3.646053 8.608283-8.86287 16.335338-15.507469 22.969019-6.642557 6.629601-14.37995 11.837408-22.997707 15.476549-8.928233 3.769693-18.403885 5.681058-28.163459 5.681058h-10.880964v-122.272285c-14.892645-2.564126-28.5842361-9.717976-39.3283464-20.706795-10.8850501-11.13161-17.758421-25.1945242-19.8806892-40.3630518-6.1850125-.8669478-12.2086591-2.5314877-18.0014912-4.9793405-8.6197995-3.6411809-16.357193-8.8510276-22.9977068-15.4867484-6.6405138-6.633681-11.85528819-14.3607362-15.49929822-22.9669786-3.77473684-8.9142638-5.68865915-18.3772546-5.68865915-28.1258282v-10.86642635h133.80706797c.161366 0 .322732-.00203988.484097-.00203988 9.436843 0 18.6347 1.85832822 27.338246 5.52398773 8.701504 3.66361963 16.461366 8.944862 23.06307 15.6968558l.014298.0142792c3.443835 3.5351073 6.475063 7.3782362 9.079386 11.4926687 2.927056-4.6366411 6.389274-8.9142638 10.360101-12.7961503l.030639-.0285583c6.554724-6.3603374 14.165476-11.32539878 22.619824-14.75851228 5.668233-2.30098159 11.536642-3.84108895 17.533735-4.60604294 7.187932-.92406442 14.688383-.68947853 21.823208.54464724 14.86609 2.5702454 28.529085 9.72001538 39.252769 20.69251538 13.264687 13.5692638 20.569048 31.4895858 20.569048 50.4624846z" fill="#fff" fill-rule="evenodd"/></mask><g fill="none" fill-rule="evenodd"><path d="m0 0h500v500h-500z" fill="#111"/><path d="m-329.255915 532.815951h1021.311429v-815.942761h-1021.311429z" fill="url(#a)" mask="url(#b)" transform="translate(86 116)"/></g></svg>