<svg height="500" viewBox="0 0 500 500" width="500" xmlns="http://www.w3.org/2000/svg" xmlns:xlink="http://www.w3.org/1999/xlink"><defs><linearGradient id="a" x1="50%" x2="50%" y1="0%" y2="100%"><stop offset="0" stop-color="#fff" stop-opacity=".5"/><stop offset="1" stop-opacity=".5"/></linearGradient><path id="b" d="m78.98152 221.48064 35.07056 52.60584c.81088 1.21632 2.0272 3.14216 5.98024 9.6292-.30408-7.602-.5068-11.85912-.5068-12.56864v-47.43648c0-4.5612-.20272-6.99384-.81088-10.54144h6.79112c-.60816 3.44624-.81088 5.98024-.81088 10.54144v54.2276c0 4.76392.20272 7.29792.81088 10.54144h-8.51424c-1.11496-2.43264-2.33128-4.5612-4.86528-8.31152l-35.57736-53.51808c-.91224-1.41904-2.22992-3.5476-4.86528-8.1088.30408 3.75032.40544 7.90608.40544 11.04824v48.34872c0 4.66256.20272 7.0952.81088 10.54144h-6.79112c.60816-3.44624.81088-6.0816.81088-10.54144v-54.2276c0-4.35848-.20272-7.0952-.81088-10.54144h8.1088c.91224 2.22992 1.92584 4.0544 4.76392 8.31152zm101.540074-9.73056c20.57608 0 33.65152 15.204 33.65152 39.12496s-13.07544 39.0236-33.65152 39.0236-33.65152-15.10264-33.65152-39.0236c0-23.8196 13.1768-39.12496 33.65152-39.12496zm.10136 73.28328c17.2312 0 28.07672-13.27816 28.07672-34.4624 0-11.25096-3.24352-20.57608-9.32512-26.55632-4.96664-4.96664-11.45368-7.50064-18.85296-7.50064-16.92712 0-28.27944 13.6836-28.27944 34.25968 0 20.47472 11.35232 34.25968 28.3808 34.25968zm58.867514-61.72824 20.37336 52.80856c.30408.81088 1.82448 5.068 2.43264 6.89248.91224-2.93944 1.5204-4.76392 2.33128-6.89248l20.17064-52.80856c1.62176-4.35848 2.73672-8.00744 3.0408-10.136h7.50064c-1.62176 2.63536-2.73672 5.068-5.27072 11.55504l-21.58968 54.63304c-1.82448 4.5612-2.63536 6.99384-3.14216 9.1224h-6.18296c-.5068-2.0272-.91224-3.14216-3.24352-9.1224l-21.69104-54.63304c-2.63536-6.48704-3.95304-9.52784-5.27072-11.55504h7.50064c.70952 3.44624 1.5204 6.28432 3.0408 10.136zm122.825674 59.70104v6.18296c-3.24352-.5068-5.5748-.70952-10.54144-.70952h-28.8876c-4.15576 0-6.89248.10136-10.23736.30408.60816-3.75032.81088-6.89248.81088-11.45368v-53.61944c0-3.75032-.20272-6.79112-.81088-10.84552 3.44624.20272 6.0816.30408 10.23736.30408h28.07672c4.15576 0 6.79112-.20272 10.54144-.70952v6.18296c-3.24352-.5068-5.67616-.70952-10.54144-.70952h-32.13112v28.3808h27.56992c4.15576 0 6.79112-.20272 10.54144-.70952v6.18296c-3.24352-.5068-5.67616-.70952-10.54144-.70952h-27.56992v32.63792h32.942c4.15576 0 6.79112-.20272 10.54144-.70952zm60.691995 5.47344h-29.29304c-4.15576 0-6.89248.10136-10.23736.30408.60816-3.75032.81088-6.89248.81088-11.45368v-53.61944c0-4.35848-.20272-7.0952-.81088-10.54144h6.79112c-.60816 3.64896-.81088 5.98024-.81088 10.54144v60.00512h33.55016c4.15576 0 6.79112-.20272 10.54144-.70952v6.18296c-3.24352-.5068-5.5748-.70952-10.54144-.70952z"/></defs><g fill="none" fill-rule="evenodd"><path d="m0 0h500v500h-500z" fill="#004c45"/><g><use fill="#fff" xlink:href="#b"/><use fill="url(#a)" xlink:href="#b"/></g></g></svg>