<svg xmlns="http://www.w3.org/2000/svg" xmlns:xlink="http://www.w3.org/1999/xlink" width="18" height="18" viewBox="0 0 18 18">
  <defs>
    <path id="facebook-a" d="M21,4.21484375 L21,19.78125 C21,20.3164062 20.5540179,20.7460938 20.0075893,20.7460938 L15.4191964,20.7460938 L15.4191964,13.9726562 L17.7575893,13.9726562 L18.1071429,11.3320312 L15.4151786,11.3320312 L15.4151786,9.64453125 C15.4151786,8.87890625 15.6321429,8.359375 16.7611607,8.359375 L18.1995536,8.359375 L18.1995536,5.99609375 C17.9504464,5.96484375 17.0986607,5.890625 16.1022321,5.890625 C14.0290179,5.890625 12.6066964,7.12109375 12.6066964,9.3828125 L12.6066964,11.3320312 L10.2602679,11.3320312 L10.2602679,13.9726562 L12.6066964,13.9726562 L12.6066964,20.75 L3.99241071,20.75 C3.44598214,20.75 3,20.3164062 3,19.7851562 L3,4.21484375 C3,3.68359375 3.44598214,3.25 3.99241071,3.25 L20.0035714,3.25 C20.5540179,3.25 21,3.68359375 21,4.21484375 Z"/>
  </defs>
  <g fill="none" fill-rule="evenodd" transform="translate(-3 -3)">
    <mask id="facebook-b" fill="#fff">
      <use xlink:href="#facebook-a"/>
    </mask>
    <use fill="#000" fill-rule="nonzero" xlink:href="#facebook-a"/>
    <g fill="#FFF" mask="url(#facebook-b)">
      <rect width="24" height="24"/>
    </g>
  </g>
</svg>
