<svg xmlns="http://www.w3.org/2000/svg" xmlns:xlink="http://www.w3.org/1999/xlink" width="18" height="18" viewBox="0 0 18 18">
  <defs>
    <path id="linkedin-a" d="M19.7142857,3.25 L4.28169643,3.25 C3.57455357,3.25 3,3.81640625 3,4.51171875 L3,19.4882812 C3,20.1835938 3.57455357,20.75 4.28169643,20.75 L19.7142857,20.75 C20.4214286,20.75 21,20.1835938 21,19.4882812 L21,4.51171875 C21,3.81640625 20.4214286,3.25 19.7142857,3.25 Z M8.44017857,18.25 L5.77232143,18.25 L5.77232143,9.8984375 L8.44419643,9.8984375 L8.44419643,18.25 L8.44017857,18.25 Z M7.10625,8.7578125 C6.25044643,8.7578125 5.559375,8.08203125 5.559375,7.25390625 C5.559375,6.42578125 6.25044643,5.75 7.10625,5.75 C7.95803571,5.75 8.653125,6.42578125 8.653125,7.25390625 C8.653125,8.0859375 7.96205357,8.7578125 7.10625,8.7578125 Z M18.440625,18.25 L15.7727679,18.25 L15.7727679,14.1875 C15.7727679,13.21875 15.7526786,11.9726562 14.3866071,11.9726562 C12.9964286,11.9726562 12.7834821,13.0273438 12.7834821,14.1171875 L12.7834821,18.25 L10.115625,18.25 L10.115625,9.8984375 L12.675,9.8984375 L12.675,11.0390625 L12.7111607,11.0390625 C13.06875,10.3828125 13.940625,9.69140625 15.2383929,9.69140625 C17.9383929,9.69140625 18.440625,11.421875 18.440625,13.671875 L18.440625,18.25 Z"/>
  </defs>
  <g fill="none" fill-rule="evenodd" transform="translate(-3 -3)">
    <mask id="linkedin-b" fill="#fff">
      <use xlink:href="#linkedin-a"/>
    </mask>
    <use fill="#000" fill-rule="nonzero" xlink:href="#linkedin-a"/>
    <g fill="#FFF" mask="url(#linkedin-b)">
      <rect width="24" height="24"/>
    </g>
  </g>
</svg>
