<svg xmlns="http://www.w3.org/2000/svg" xmlns:xlink="http://www.w3.org/1999/xlink" width="20" height="14" viewBox="0 0 20 14">
  <defs>
    <path id="youtube-a" d="M21.0852431,7.36229297 C20.8671528,6.53084766 20.2245833,5.87602734 19.4087153,5.65380469 C17.9298958,5.25 12,5.25 12,5.25 C12,5.25 6.07013889,5.25 4.59128472,5.65380469 C3.77541667,5.8760625 3.13284722,6.53084766 2.91475694,7.36229297 C2.51850694,8.86933594 2.51850694,12.0136406 2.51850694,12.0136406 C2.51850694,12.0136406 2.51850694,15.1579453 2.91475694,16.6649883 C3.13284722,17.4964336 3.77541667,18.1239727 4.59128472,18.3461953 C6.07013889,18.75 12,18.75 12,18.75 C12,18.75 17.9298611,18.75 19.4087153,18.3461953 C20.2245833,18.1239727 20.8671528,17.4964336 21.0852431,16.6649883 C21.4814931,15.1579453 21.4814931,12.0136406 21.4814931,12.0136406 C21.4814931,12.0136406 21.4814931,8.86933594 21.0852431,7.36229297 Z M10.0605903,14.8684336 L10.0605903,9.15884766 L15.0168056,12.0137109 L10.0605903,14.8684336 Z"/>
  </defs>
  <g fill="none" fill-rule="evenodd" transform="translate(-2 -5)">
    <mask id="youtube-b" fill="#fff">
      <use xlink:href="#youtube-a"/>
    </mask>
    <use fill="#000" fill-rule="nonzero" xlink:href="#youtube-a"/>
    <g fill="#FFF" mask="url(#youtube-b)">
      <rect width="24" height="24"/>
    </g>
  </g>
</svg>
